<svg xmlns="http://www.w3.org/2000/svg" version="1.1" xmlns:xlink="http://www.w3.org/1999/xlink" xmlns:svgjs="http://svgjs.com/svgjs" width="1000" height="1000"><rect width="1000" height="1000" rx="200" ry="200" fill="#eae2b7"></rect><g transform="matrix(10,0,0,10,100,100)"><svg xmlns="http://www.w3.org/2000/svg" version="1.1" xmlns:xlink="http://www.w3.org/1999/xlink" xmlns:svgjs="http://svgjs.com/svgjs" width="80" height="80"><svg xmlns="http://www.w3.org/2000/svg" class="icon icon-tabler icon-tabler-virus" width="80" height="80" viewBox="0 0 24 24" stroke-width="2" stroke="#003049" fill="none" stroke-linecap="round" stroke-linejoin="round">
  <path stroke="none" d="M0 0h24v24H0z" fill="none"></path>
  <circle cx="12" cy="12" r="5"></circle>
  <path d="M12 7v-4m-1 0h2"></path>
  <path d="M12 7v-4m-1 0h2" transform="rotate(45 12 12)"></path>
  <path d="M12 7v-4m-1 0h2" transform="rotate(90 12 12)"></path>
  <path d="M12 7v-4m-1 0h2" transform="rotate(135 12 12)"></path>
  <path d="M12 7v-4m-1 0h2" transform="rotate(180 12 12)"></path>
  <path d="M12 7v-4m-1 0h2" transform="rotate(225 12 12)"></path>
  <path d="M12 7v-4m-1 0h2" transform="rotate(270 12 12)"></path>
  <path d="M12 7v-4m-1 0h2" transform="rotate(315 12 12)"></path>
</svg></svg></g></svg>